<?xml version="1.0" encoding="UTF-8" standalone="no"?>
<!DOCTYPE svg PUBLIC "-//W3C//DTD SVG 1.1//EN"
 "http://www.w3.org/Graphics/SVG/1.1/DTD/svg11.dtd">
<!-- Generated by graphviz version 2.44.0 ()
 -->
<!-- Pages: 1 -->
<svg width="815pt" height="351pt"
 viewBox="0.00 0.00 815.34 351.00" xmlns="http://www.w3.org/2000/svg" xmlns:xlink="http://www.w3.org/1999/xlink">
<g id="graph0" class="graph" transform="scale(1 1) rotate(0) translate(4 347)">
<polygon fill="white" stroke="transparent" points="-4,4 -4,-347 811.34,-347 811.34,4 -4,4"/>
<!-- root -->
<g id="node1" class="node">
<title>root</title>
<polygon fill="none" stroke="black" points="269.5,-343 140.5,-343 140.5,-307 269.5,-307 269.5,-343"/>
<text text-anchor="middle" x="205" y="-321.3" font-family="Times,serif" font-size="14.00">ErpSystemOpgave</text>
</g>
<!-- testproject -->
<g id="node2" class="node">
<title>testproject</title>
<polygon fill="none" stroke="black" points="91,-271 0,-253 91,-235 181.99,-253 91,-271"/>
<text text-anchor="middle" x="91" y="-249.3" font-family="Times,serif" font-size="14.00">UnitTestErp</text>
</g>
<!-- root&#45;&gt;testproject -->
<g id="edge1" class="edge">
<title>root&#45;&gt;testproject</title>
<path fill="none" stroke="black" d="M177.11,-306.88C160.04,-296.4 138.22,-283 120.82,-272.31"/>
<polygon fill="black" stroke="black" points="122.52,-269.25 112.16,-267 118.85,-275.21 122.52,-269.25"/>
</g>
<!-- project -->
<g id="node4" class="node">
<title>project</title>
<polygon fill="none" stroke="black" points="332,-271 213.35,-253 332,-235 450.64,-253 332,-271"/>
<text text-anchor="middle" x="332" y="-249.3" font-family="Times,serif" font-size="14.00">ErpSystemOpgave</text>
</g>
<!-- root&#45;&gt;project -->
<g id="edge3" class="edge">
<title>root&#45;&gt;project</title>
<path fill="none" stroke="black" d="M236.06,-306.88C255.08,-296.39 279.41,-282.99 298.8,-272.3"/>
<polygon fill="black" stroke="black" points="300.54,-275.34 307.61,-267.44 297.16,-269.21 300.54,-275.34"/>
</g>
<!-- tests -->
<g id="node3" class="node">
<title>tests</title>
<polygon fill="none" stroke="black" points="5,-129.5 5,-198.5 149,-198.5 149,-129.5 5,-129.5"/>
<text text-anchor="middle" x="77" y="-183.3" font-family="Times,serif" font-size="14.00">DatabaseTests.cs</text>
<polyline fill="none" stroke="black" points="5,-175.5 149,-175.5 "/>
<text text-anchor="middle" x="77" y="-160.3" font-family="Times,serif" font-size="14.00">DataModelTests.cs</text>
<polyline fill="none" stroke="black" points="5,-152.5 149,-152.5 "/>
<text text-anchor="middle" x="77" y="-137.3" font-family="Times,serif" font-size="14.00">...</text>
</g>
<!-- testproject&#45;&gt;tests -->
<g id="edge2" class="edge">
<title>testproject&#45;&gt;tests</title>
<path fill="none" stroke="black" d="M88.3,-235.23C87.07,-227.61 85.56,-218.21 84.04,-208.79"/>
<polygon fill="black" stroke="black" points="87.46,-207.97 82.41,-198.65 80.55,-209.08 87.46,-207.97"/>
</g>
<!-- Program.cs -->
<g id="node5" class="node">
<title>Program.cs</title>
<ellipse fill="none" stroke="black" cx="227" cy="-164" rx="59.59" ry="18"/>
<text text-anchor="middle" x="227" y="-160.3" font-family="Times,serif" font-size="14.00">Program.cs</text>
</g>
<!-- project&#45;&gt;Program.cs -->
<g id="edge4" class="edge">
<title>project&#45;&gt;Program.cs</title>
<path fill="none" stroke="black" d="M314.18,-237.24C297.8,-223.67 273.26,-203.33 254.39,-187.69"/>
<polygon fill="black" stroke="black" points="256.62,-185 246.68,-181.31 252.15,-190.39 256.62,-185"/>
</g>
<!-- data -->
<g id="node6" class="node">
<title>data</title>
<polygon fill="none" stroke="black" points="359,-182 356,-186 335,-186 332,-182 305,-182 305,-146 359,-146 359,-182"/>
<text text-anchor="middle" x="332" y="-160.3" font-family="Times,serif" font-size="14.00">Data</text>
</g>
<!-- project&#45;&gt;data -->
<g id="edge5" class="edge">
<title>project&#45;&gt;data</title>
<path fill="none" stroke="black" d="M332,-234.81C332,-222.66 332,-206.11 332,-192.18"/>
<polygon fill="black" stroke="black" points="335.5,-192.15 332,-182.15 328.5,-192.15 335.5,-192.15"/>
</g>
<!-- ui -->
<g id="node7" class="node">
<title>ui</title>
<polygon fill="none" stroke="black" points="431,-182 428,-186 407,-186 404,-182 377,-182 377,-146 431,-146 431,-182"/>
<text text-anchor="middle" x="404" y="-160.3" font-family="Times,serif" font-size="14.00">Ui</text>
</g>
<!-- project&#45;&gt;ui -->
<g id="edge7" class="edge">
<title>project&#45;&gt;ui</title>
<path fill="none" stroke="black" d="M344.54,-236.85C355.21,-223.95 370.76,-205.16 383.28,-190.03"/>
<polygon fill="black" stroke="black" points="386.19,-192 389.87,-182.07 380.8,-187.54 386.19,-192"/>
</g>
<!-- serv -->
<g id="node8" class="node">
<title>serv</title>
<polygon fill="none" stroke="black" points="627.5,-182 624.5,-186 603.5,-186 600.5,-182 550.5,-182 550.5,-146 627.5,-146 627.5,-182"/>
<text text-anchor="middle" x="589" y="-160.3" font-family="Times,serif" font-size="14.00">Services</text>
</g>
<!-- project&#45;&gt;serv -->
<g id="edge9" class="edge">
<title>project&#45;&gt;serv</title>
<path fill="none" stroke="black" d="M366.92,-240.18C411.83,-224.98 490.03,-198.5 540.63,-181.37"/>
<polygon fill="black" stroke="black" points="542.02,-184.6 550.37,-178.08 539.77,-177.97 542.02,-184.6"/>
</g>
<!-- records -->
<g id="node9" class="node">
<title>records</title>
<polygon fill="none" stroke="black" points="192.5,-0.5 192.5,-92.5 291.5,-92.5 291.5,-0.5 192.5,-0.5"/>
<text text-anchor="middle" x="242" y="-77.3" font-family="Times,serif" font-size="14.00">Person.cs</text>
<polyline fill="none" stroke="black" points="192.5,-69.5 291.5,-69.5 "/>
<text text-anchor="middle" x="242" y="-54.3" font-family="Times,serif" font-size="14.00">Product.cs</text>
<polyline fill="none" stroke="black" points="192.5,-46.5 291.5,-46.5 "/>
<text text-anchor="middle" x="242" y="-31.3" font-family="Times,serif" font-size="14.00">Customer.cs</text>
<polyline fill="none" stroke="black" points="192.5,-23.5 291.5,-23.5 "/>
<text text-anchor="middle" x="242" y="-8.3" font-family="Times,serif" font-size="14.00">...</text>
</g>
<!-- data&#45;&gt;records -->
<g id="edge6" class="edge">
<title>data&#45;&gt;records</title>
<path fill="none" stroke="black" d="M318.72,-145.96C309.3,-133.88 296.12,-116.96 283.34,-100.56"/>
<polygon fill="black" stroke="black" points="286.02,-98.31 277.12,-92.57 280.5,-102.61 286.02,-98.31"/>
</g>
<!-- screens -->
<g id="node10" class="node">
<title>screens</title>
<polygon fill="none" stroke="black" points="309.5,-0.5 309.5,-92.5 498.5,-92.5 498.5,-0.5 309.5,-0.5"/>
<text text-anchor="middle" x="404" y="-77.3" font-family="Times,serif" font-size="14.00">ListProductsScreen.cs</text>
<polyline fill="none" stroke="black" points="309.5,-69.5 498.5,-69.5 "/>
<text text-anchor="middle" x="404" y="-54.3" font-family="Times,serif" font-size="14.00">UpdateCustomerScreen.cs</text>
<polyline fill="none" stroke="black" points="309.5,-46.5 498.5,-46.5 "/>
<text text-anchor="middle" x="404" y="-31.3" font-family="Times,serif" font-size="14.00">OrderDetailsSreen.cs</text>
<polyline fill="none" stroke="black" points="309.5,-23.5 498.5,-23.5 "/>
<text text-anchor="middle" x="404" y="-8.3" font-family="Times,serif" font-size="14.00">...</text>
</g>
<!-- ui&#45;&gt;screens -->
<g id="edge8" class="edge">
<title>ui&#45;&gt;screens</title>
<path fill="none" stroke="black" d="M404,-145.96C404,-134.43 404,-118.49 404,-102.8"/>
<polygon fill="black" stroke="black" points="407.5,-102.57 404,-92.57 400.5,-102.57 407.5,-102.57"/>
</g>
<!-- facades -->
<g id="node11" class="node">
<title>facades</title>
<polygon fill="none" stroke="black" points="517,-0.5 517,-92.5 661,-92.5 661,-0.5 517,-0.5"/>
<text text-anchor="middle" x="589" y="-77.3" font-family="Times,serif" font-size="14.00">ProductsFacade.cs</text>
<polyline fill="none" stroke="black" points="517,-69.5 661,-69.5 "/>
<text text-anchor="middle" x="589" y="-54.3" font-family="Times,serif" font-size="14.00">CustomerFacade.cs</text>
<polyline fill="none" stroke="black" points="517,-46.5 661,-46.5 "/>
<text text-anchor="middle" x="589" y="-31.3" font-family="Times,serif" font-size="14.00">SalesFacade.cs</text>
<polyline fill="none" stroke="black" points="517,-23.5 661,-23.5 "/>
<text text-anchor="middle" x="589" y="-8.3" font-family="Times,serif" font-size="14.00">...</text>
</g>
<!-- serv&#45;&gt;facades -->
<g id="edge10" class="edge">
<title>serv&#45;&gt;facades</title>
<path fill="none" stroke="black" d="M589,-145.96C589,-134.43 589,-118.49 589,-102.8"/>
<polygon fill="black" stroke="black" points="592.5,-102.57 589,-92.57 585.5,-102.57 592.5,-102.57"/>
</g>
<!-- Database.cs -->
<g id="node12" class="node">
<title>Database.cs</title>
<ellipse fill="none" stroke="black" cx="743" cy="-46.5" rx="64.19" ry="18"/>
<text text-anchor="middle" x="743" y="-42.8" font-family="Times,serif" font-size="14.00">Database.cs</text>
</g>
<!-- serv&#45;&gt;Database.cs -->
<g id="edge11" class="edge">
<title>serv&#45;&gt;Database.cs</title>
<path fill="none" stroke="black" d="M611.72,-145.96C638.68,-125.74 683.69,-91.98 713.36,-69.72"/>
<polygon fill="black" stroke="black" points="715.77,-72.3 721.67,-63.5 711.57,-66.7 715.77,-72.3"/>
</g>
</g>
</svg>
